%TF.GenerationSoftware,KiCad,Pcbnew,8.0.8-rc1*%
%TF.CreationDate,2026-02-12T14:51:53+09:00*%
%TF.ProjectId,jtag_14pa,6a746167-5f31-4347-9061-2e6b69636164,rev?*%
%TF.SameCoordinates,Original*%
%TF.FileFunction,Copper,L2,Bot*%
%TF.FilePolarity,Positive*%
%FSLAX46Y46*%
G04 Gerber Fmt 4.6, Leading zero omitted, Abs format (unit mm)*
G04 Created by KiCad (PCBNEW 8.0.8-rc1) date 2026-02-12 14:51:53*
%MOMM*%
%LPD*%
G01*
G04 APERTURE LIST*
%TA.AperFunction,ComponentPad*%
%ADD10R,1.700000X1.700000*%
%TD*%
%TA.AperFunction,ComponentPad*%
%ADD11O,1.700000X1.700000*%
%TD*%
%TA.AperFunction,ComponentPad*%
%ADD12R,1.350000X1.350000*%
%TD*%
%TA.AperFunction,ComponentPad*%
%ADD13O,1.350000X1.350000*%
%TD*%
G04 APERTURE END LIST*
D10*
%TO.P,J1,1,Pin_1*%
%TO.N,/TMS*%
X140500000Y-84150000D03*
D11*
%TO.P,J1,2,Pin_2*%
%TO.N,/TDI*%
X140500000Y-86690000D03*
%TO.P,J1,3,Pin_3*%
%TO.N,/TDO*%
X140500000Y-89230000D03*
%TO.P,J1,4,Pin_4*%
%TO.N,/TCK*%
X140500000Y-91770000D03*
%TO.P,J1,5,Pin_5*%
%TO.N,/GND*%
X140500000Y-94310000D03*
%TO.P,J1,6,Pin_6*%
%TO.N,/VDD*%
X140500000Y-96850000D03*
%TD*%
D12*
%TO.P,J2,1,Pin_1*%
%TO.N,unconnected-(J2-Pin_1-Pad1)*%
X135000000Y-84500000D03*
D13*
%TO.P,J2,2,Pin_2*%
%TO.N,/VDD*%
X137000000Y-84500000D03*
%TO.P,J2,3,Pin_3*%
%TO.N,/GND*%
X135000000Y-86500000D03*
%TO.P,J2,4,Pin_4*%
%TO.N,/TMS*%
X137000000Y-86500000D03*
%TO.P,J2,5,Pin_5*%
%TO.N,/GND*%
X135000000Y-88500000D03*
%TO.P,J2,6,Pin_6*%
%TO.N,/TCK*%
X137000000Y-88500000D03*
%TO.P,J2,7,Pin_7*%
%TO.N,/GND*%
X135000000Y-90500000D03*
%TO.P,J2,8,Pin_8*%
%TO.N,/TDO*%
X137000000Y-90500000D03*
%TO.P,J2,9,Pin_9*%
%TO.N,/GND*%
X135000000Y-92500000D03*
%TO.P,J2,10,Pin_10*%
%TO.N,/TDI*%
X137000000Y-92500000D03*
%TO.P,J2,11,Pin_11*%
%TO.N,/GND*%
X135000000Y-94500000D03*
%TO.P,J2,12,Pin_12*%
%TO.N,unconnected-(J2-Pin_12-Pad12)*%
X137000000Y-94500000D03*
%TO.P,J2,13,Pin_13*%
%TO.N,/GND*%
X135000000Y-96500000D03*
%TO.P,J2,14,Pin_14*%
%TO.N,unconnected-(J2-Pin_14-Pad14)*%
X137000000Y-96500000D03*
%TD*%
%TA.AperFunction,Conductor*%
%TO.N,/GND*%
G36*
X135250000Y-96184314D02*
G01*
X135245606Y-96179920D01*
X135154394Y-96127259D01*
X135052661Y-96100000D01*
X134947339Y-96100000D01*
X134845606Y-96127259D01*
X134754394Y-96179920D01*
X134750000Y-96184314D01*
X134750000Y-94815686D01*
X134754394Y-94820080D01*
X134845606Y-94872741D01*
X134947339Y-94900000D01*
X135052661Y-94900000D01*
X135154394Y-94872741D01*
X135245606Y-94820080D01*
X135250000Y-94815686D01*
X135250000Y-96184314D01*
G37*
%TD.AperFunction*%
%TA.AperFunction,Conductor*%
G36*
X135250000Y-94184314D02*
G01*
X135245606Y-94179920D01*
X135154394Y-94127259D01*
X135052661Y-94100000D01*
X134947339Y-94100000D01*
X134845606Y-94127259D01*
X134754394Y-94179920D01*
X134750000Y-94184314D01*
X134750000Y-92815686D01*
X134754394Y-92820080D01*
X134845606Y-92872741D01*
X134947339Y-92900000D01*
X135052661Y-92900000D01*
X135154394Y-92872741D01*
X135245606Y-92820080D01*
X135250000Y-92815686D01*
X135250000Y-94184314D01*
G37*
%TD.AperFunction*%
%TA.AperFunction,Conductor*%
G36*
X135250000Y-92184314D02*
G01*
X135245606Y-92179920D01*
X135154394Y-92127259D01*
X135052661Y-92100000D01*
X134947339Y-92100000D01*
X134845606Y-92127259D01*
X134754394Y-92179920D01*
X134750000Y-92184314D01*
X134750000Y-90815686D01*
X134754394Y-90820080D01*
X134845606Y-90872741D01*
X134947339Y-90900000D01*
X135052661Y-90900000D01*
X135154394Y-90872741D01*
X135245606Y-90820080D01*
X135250000Y-90815686D01*
X135250000Y-92184314D01*
G37*
%TD.AperFunction*%
%TA.AperFunction,Conductor*%
G36*
X135250000Y-90184314D02*
G01*
X135245606Y-90179920D01*
X135154394Y-90127259D01*
X135052661Y-90100000D01*
X134947339Y-90100000D01*
X134845606Y-90127259D01*
X134754394Y-90179920D01*
X134750000Y-90184314D01*
X134750000Y-88815686D01*
X134754394Y-88820080D01*
X134845606Y-88872741D01*
X134947339Y-88900000D01*
X135052661Y-88900000D01*
X135154394Y-88872741D01*
X135245606Y-88820080D01*
X135250000Y-88815686D01*
X135250000Y-90184314D01*
G37*
%TD.AperFunction*%
%TA.AperFunction,Conductor*%
G36*
X135250000Y-88184314D02*
G01*
X135245606Y-88179920D01*
X135154394Y-88127259D01*
X135052661Y-88100000D01*
X134947339Y-88100000D01*
X134845606Y-88127259D01*
X134754394Y-88179920D01*
X134750000Y-88184314D01*
X134750000Y-86815686D01*
X134754394Y-86820080D01*
X134845606Y-86872741D01*
X134947339Y-86900000D01*
X135052661Y-86900000D01*
X135154394Y-86872741D01*
X135245606Y-86820080D01*
X135250000Y-86815686D01*
X135250000Y-88184314D01*
G37*
%TD.AperFunction*%
%TA.AperFunction,Conductor*%
G36*
X139255468Y-82770185D02*
G01*
X139301223Y-82822989D01*
X139311167Y-82892147D01*
X139287695Y-82948811D01*
X139206206Y-83057664D01*
X139206202Y-83057671D01*
X139155908Y-83192517D01*
X139149501Y-83252116D01*
X139149501Y-83252123D01*
X139149500Y-83252135D01*
X139149500Y-85047870D01*
X139149501Y-85047876D01*
X139155908Y-85107483D01*
X139206202Y-85242328D01*
X139206206Y-85242335D01*
X139292452Y-85357544D01*
X139292455Y-85357547D01*
X139407664Y-85443793D01*
X139407671Y-85443797D01*
X139539081Y-85492810D01*
X139595015Y-85534681D01*
X139619432Y-85600145D01*
X139604580Y-85668418D01*
X139583430Y-85696673D01*
X139461503Y-85818600D01*
X139325965Y-86012169D01*
X139325964Y-86012171D01*
X139226098Y-86226335D01*
X139226094Y-86226344D01*
X139164938Y-86454586D01*
X139164936Y-86454596D01*
X139144341Y-86689999D01*
X139144341Y-86690000D01*
X139164936Y-86925403D01*
X139164938Y-86925413D01*
X139226094Y-87153655D01*
X139226096Y-87153659D01*
X139226097Y-87153663D01*
X139325965Y-87367830D01*
X139325967Y-87367834D01*
X139461501Y-87561395D01*
X139461506Y-87561402D01*
X139628597Y-87728493D01*
X139628603Y-87728498D01*
X139814158Y-87858425D01*
X139857783Y-87913002D01*
X139864977Y-87982500D01*
X139833454Y-88044855D01*
X139814158Y-88061575D01*
X139628597Y-88191505D01*
X139461505Y-88358597D01*
X139325965Y-88552169D01*
X139325964Y-88552171D01*
X139226098Y-88766335D01*
X139226094Y-88766344D01*
X139164938Y-88994586D01*
X139164936Y-88994596D01*
X139144341Y-89229999D01*
X139144341Y-89230000D01*
X139164936Y-89465403D01*
X139164938Y-89465413D01*
X139226094Y-89693655D01*
X139226096Y-89693659D01*
X139226097Y-89693663D01*
X139322547Y-89900500D01*
X139325965Y-89907830D01*
X139325967Y-89907834D01*
X139461501Y-90101395D01*
X139461506Y-90101402D01*
X139628597Y-90268493D01*
X139628603Y-90268498D01*
X139814158Y-90398425D01*
X139857783Y-90453002D01*
X139864977Y-90522500D01*
X139833454Y-90584855D01*
X139814158Y-90601575D01*
X139628597Y-90731505D01*
X139461505Y-90898597D01*
X139325965Y-91092169D01*
X139325964Y-91092171D01*
X139226098Y-91306335D01*
X139226094Y-91306344D01*
X139164938Y-91534586D01*
X139164936Y-91534596D01*
X139144341Y-91769999D01*
X139144341Y-91770000D01*
X139164936Y-92005403D01*
X139164938Y-92005413D01*
X139226094Y-92233655D01*
X139226096Y-92233659D01*
X139226097Y-92233663D01*
X139249141Y-92283081D01*
X139325965Y-92447830D01*
X139325967Y-92447834D01*
X139434281Y-92602521D01*
X139461505Y-92641401D01*
X139628599Y-92808495D01*
X139796813Y-92926280D01*
X139814594Y-92938730D01*
X139858219Y-92993307D01*
X139865413Y-93062805D01*
X139833890Y-93125160D01*
X139814595Y-93141880D01*
X139628922Y-93271890D01*
X139628920Y-93271891D01*
X139461891Y-93438920D01*
X139461886Y-93438926D01*
X139326400Y-93632420D01*
X139326399Y-93632422D01*
X139226570Y-93846507D01*
X139226567Y-93846513D01*
X139169364Y-94059999D01*
X139169364Y-94060000D01*
X140066988Y-94060000D01*
X140034075Y-94117007D01*
X140000000Y-94244174D01*
X140000000Y-94375826D01*
X140034075Y-94502993D01*
X140066988Y-94560000D01*
X139169364Y-94560000D01*
X139226567Y-94773486D01*
X139226570Y-94773492D01*
X139326399Y-94987578D01*
X139461894Y-95181082D01*
X139628917Y-95348105D01*
X139814595Y-95478119D01*
X139858219Y-95532696D01*
X139865412Y-95602195D01*
X139833890Y-95664549D01*
X139814595Y-95681269D01*
X139628594Y-95811508D01*
X139461505Y-95978597D01*
X139325965Y-96172169D01*
X139325964Y-96172171D01*
X139226098Y-96386335D01*
X139226094Y-96386344D01*
X139164938Y-96614586D01*
X139164936Y-96614596D01*
X139144341Y-96849999D01*
X139144341Y-96850000D01*
X139164936Y-97085403D01*
X139164938Y-97085413D01*
X139226094Y-97313655D01*
X139226096Y-97313659D01*
X139226097Y-97313663D01*
X139285795Y-97441685D01*
X139325965Y-97527830D01*
X139325967Y-97527834D01*
X139461501Y-97721395D01*
X139461506Y-97721402D01*
X139628597Y-97888493D01*
X139628603Y-97888498D01*
X139822013Y-98023925D01*
X139865638Y-98078502D01*
X139872832Y-98148000D01*
X139841309Y-98210355D01*
X139781079Y-98245769D01*
X139750890Y-98249500D01*
X132374500Y-98249500D01*
X132307461Y-98229815D01*
X132261706Y-98177011D01*
X132250500Y-98125500D01*
X132250500Y-91434110D01*
X132250500Y-91434108D01*
X132216392Y-91306814D01*
X132216115Y-91306335D01*
X132207563Y-91291521D01*
X132150500Y-91192686D01*
X132057314Y-91099500D01*
X132000250Y-91066554D01*
X131943187Y-91033608D01*
X131879539Y-91016554D01*
X131815892Y-90999500D01*
X131815891Y-90999500D01*
X128874500Y-90999500D01*
X128807461Y-90979815D01*
X128761706Y-90927011D01*
X128750500Y-90875500D01*
X128750500Y-90124500D01*
X128770185Y-90057461D01*
X128822989Y-90011706D01*
X128874500Y-90000500D01*
X131815890Y-90000500D01*
X131815892Y-90000500D01*
X131943186Y-89966392D01*
X132057314Y-89900500D01*
X132150500Y-89807314D01*
X132216392Y-89693186D01*
X132250500Y-89565892D01*
X132250500Y-83777135D01*
X133824500Y-83777135D01*
X133824500Y-85222870D01*
X133824501Y-85222876D01*
X133830908Y-85282483D01*
X133881202Y-85417328D01*
X133881206Y-85417335D01*
X133967452Y-85532544D01*
X133967455Y-85532547D01*
X134053504Y-85596964D01*
X134095375Y-85652898D01*
X134100359Y-85722589D01*
X134078148Y-85770956D01*
X133996714Y-85878792D01*
X133899651Y-86073719D01*
X133849494Y-86249999D01*
X133849495Y-86250000D01*
X134684314Y-86250000D01*
X134679920Y-86254394D01*
X134627259Y-86345606D01*
X134600000Y-86447339D01*
X134600000Y-86552661D01*
X134627259Y-86654394D01*
X134679920Y-86745606D01*
X134684314Y-86750000D01*
X133849495Y-86750000D01*
X133899651Y-86926280D01*
X133996715Y-87121208D01*
X134127945Y-87294986D01*
X134252315Y-87408363D01*
X134288597Y-87468074D01*
X134286836Y-87537921D01*
X134252315Y-87591637D01*
X134127945Y-87705013D01*
X133996715Y-87878791D01*
X133899651Y-88073719D01*
X133849494Y-88249999D01*
X133849495Y-88250000D01*
X134684314Y-88250000D01*
X134679920Y-88254394D01*
X134627259Y-88345606D01*
X134600000Y-88447339D01*
X134600000Y-88552661D01*
X134627259Y-88654394D01*
X134679920Y-88745606D01*
X134684314Y-88750000D01*
X133849495Y-88750000D01*
X133899651Y-88926280D01*
X133996715Y-89121208D01*
X134127945Y-89294986D01*
X134252315Y-89408363D01*
X134288597Y-89468074D01*
X134286836Y-89537921D01*
X134252315Y-89591637D01*
X134127945Y-89705013D01*
X133996715Y-89878791D01*
X133899651Y-90073719D01*
X133849494Y-90249999D01*
X133849495Y-90250000D01*
X134684314Y-90250000D01*
X134679920Y-90254394D01*
X134627259Y-90345606D01*
X134600000Y-90447339D01*
X134600000Y-90552661D01*
X134627259Y-90654394D01*
X134679920Y-90745606D01*
X134684314Y-90750000D01*
X133849495Y-90750000D01*
X133899651Y-90926280D01*
X133996715Y-91121208D01*
X134127945Y-91294986D01*
X134252315Y-91408363D01*
X134288597Y-91468074D01*
X134286836Y-91537921D01*
X134252315Y-91591637D01*
X134127945Y-91705013D01*
X133996715Y-91878791D01*
X133899651Y-92073719D01*
X133849494Y-92249999D01*
X133849495Y-92250000D01*
X134684314Y-92250000D01*
X134679920Y-92254394D01*
X134627259Y-92345606D01*
X134600000Y-92447339D01*
X134600000Y-92552661D01*
X134627259Y-92654394D01*
X134679920Y-92745606D01*
X134684314Y-92750000D01*
X133849495Y-92750000D01*
X133899651Y-92926280D01*
X133996715Y-93121208D01*
X134127945Y-93294986D01*
X134252315Y-93408363D01*
X134288597Y-93468074D01*
X134286836Y-93537921D01*
X134252315Y-93591637D01*
X134127945Y-93705013D01*
X133996715Y-93878791D01*
X133899651Y-94073719D01*
X133849494Y-94249999D01*
X133849495Y-94250000D01*
X134684314Y-94250000D01*
X134679920Y-94254394D01*
X134627259Y-94345606D01*
X134600000Y-94447339D01*
X134600000Y-94552661D01*
X134627259Y-94654394D01*
X134679920Y-94745606D01*
X134684314Y-94750000D01*
X133849495Y-94750000D01*
X133899651Y-94926280D01*
X133996715Y-95121208D01*
X134127945Y-95294986D01*
X134252315Y-95408363D01*
X134288597Y-95468074D01*
X134286836Y-95537921D01*
X134252315Y-95591637D01*
X134127945Y-95705013D01*
X133996715Y-95878791D01*
X133899651Y-96073719D01*
X133849494Y-96249999D01*
X133849495Y-96250000D01*
X134684314Y-96250000D01*
X134679920Y-96254394D01*
X134627259Y-96345606D01*
X134600000Y-96447339D01*
X134600000Y-96552661D01*
X134627259Y-96654394D01*
X134679920Y-96745606D01*
X134684314Y-96750000D01*
X133849495Y-96750000D01*
X133899651Y-96926280D01*
X133996715Y-97121208D01*
X134127945Y-97294985D01*
X134288868Y-97441685D01*
X134474012Y-97556322D01*
X134474023Y-97556327D01*
X134677060Y-97634984D01*
X134750000Y-97648619D01*
X134750000Y-96815686D01*
X134754394Y-96820080D01*
X134845606Y-96872741D01*
X134947339Y-96900000D01*
X135052661Y-96900000D01*
X135154394Y-96872741D01*
X135245606Y-96820080D01*
X135250000Y-96815686D01*
X135250000Y-97648619D01*
X135322939Y-97634984D01*
X135525976Y-97556327D01*
X135525987Y-97556322D01*
X135711130Y-97441685D01*
X135711131Y-97441685D01*
X135872055Y-97294984D01*
X135900730Y-97257012D01*
X135956838Y-97215374D01*
X136026550Y-97210681D01*
X136087733Y-97244422D01*
X136098640Y-97257009D01*
X136117512Y-97282000D01*
X136127573Y-97295322D01*
X136288568Y-97442088D01*
X136288575Y-97442092D01*
X136288576Y-97442093D01*
X136473786Y-97556770D01*
X136473792Y-97556773D01*
X136496664Y-97565633D01*
X136676931Y-97635470D01*
X136891074Y-97675500D01*
X136891076Y-97675500D01*
X137108924Y-97675500D01*
X137108926Y-97675500D01*
X137323069Y-97635470D01*
X137526210Y-97556772D01*
X137711432Y-97442088D01*
X137872427Y-97295322D01*
X138003712Y-97121472D01*
X138100817Y-96926459D01*
X138160435Y-96716923D01*
X138180536Y-96500000D01*
X138160435Y-96283077D01*
X138100817Y-96073541D01*
X138003712Y-95878528D01*
X137872427Y-95704678D01*
X137748423Y-95591634D01*
X137712145Y-95531927D01*
X137713905Y-95462079D01*
X137748423Y-95408365D01*
X137872427Y-95295322D01*
X138003712Y-95121472D01*
X138100817Y-94926459D01*
X138160435Y-94716923D01*
X138180536Y-94500000D01*
X138160435Y-94283077D01*
X138100817Y-94073541D01*
X138003712Y-93878528D01*
X137872427Y-93704678D01*
X137748423Y-93591634D01*
X137712145Y-93531927D01*
X137713905Y-93462079D01*
X137748423Y-93408365D01*
X137872427Y-93295322D01*
X138003712Y-93121472D01*
X138100817Y-92926459D01*
X138160435Y-92716923D01*
X138180536Y-92500000D01*
X138160435Y-92283077D01*
X138100817Y-92073541D01*
X138003712Y-91878528D01*
X137872427Y-91704678D01*
X137748423Y-91591634D01*
X137712145Y-91531927D01*
X137713905Y-91462079D01*
X137748423Y-91408365D01*
X137872427Y-91295322D01*
X138003712Y-91121472D01*
X138100817Y-90926459D01*
X138160435Y-90716923D01*
X138180536Y-90500000D01*
X138160435Y-90283077D01*
X138100817Y-90073541D01*
X138003712Y-89878528D01*
X137872427Y-89704678D01*
X137748423Y-89591634D01*
X137712145Y-89531927D01*
X137713905Y-89462079D01*
X137748423Y-89408365D01*
X137872427Y-89295322D01*
X138003712Y-89121472D01*
X138100817Y-88926459D01*
X138160435Y-88716923D01*
X138180536Y-88500000D01*
X138160435Y-88283077D01*
X138100817Y-88073541D01*
X138003712Y-87878528D01*
X137872427Y-87704678D01*
X137748423Y-87591634D01*
X137712145Y-87531927D01*
X137713905Y-87462079D01*
X137748423Y-87408365D01*
X137872427Y-87295322D01*
X138003712Y-87121472D01*
X138100817Y-86926459D01*
X138160435Y-86716923D01*
X138180536Y-86500000D01*
X138160435Y-86283077D01*
X138100817Y-86073541D01*
X138003712Y-85878528D01*
X137872427Y-85704678D01*
X137748423Y-85591634D01*
X137712145Y-85531927D01*
X137713905Y-85462079D01*
X137748423Y-85408365D01*
X137872427Y-85295322D01*
X138003712Y-85121472D01*
X138100817Y-84926459D01*
X138160435Y-84716923D01*
X138180536Y-84500000D01*
X138160435Y-84283077D01*
X138100817Y-84073541D01*
X138003712Y-83878528D01*
X137872427Y-83704678D01*
X137845016Y-83679690D01*
X137755996Y-83598537D01*
X137711432Y-83557912D01*
X137711428Y-83557909D01*
X137711423Y-83557906D01*
X137526213Y-83443229D01*
X137526207Y-83443226D01*
X137441113Y-83410260D01*
X137323069Y-83364530D01*
X137108926Y-83324500D01*
X136891074Y-83324500D01*
X136676931Y-83364530D01*
X136633896Y-83381202D01*
X136473792Y-83443226D01*
X136473786Y-83443229D01*
X136288565Y-83557913D01*
X136277585Y-83567923D01*
X136214780Y-83598537D01*
X136145393Y-83590336D01*
X136094785Y-83550594D01*
X136068848Y-83515948D01*
X136032546Y-83467454D01*
X136032544Y-83467453D01*
X136032544Y-83467452D01*
X135917335Y-83381206D01*
X135917328Y-83381202D01*
X135782482Y-83330908D01*
X135782483Y-83330908D01*
X135722883Y-83324501D01*
X135722881Y-83324500D01*
X135722873Y-83324500D01*
X135722864Y-83324500D01*
X134277129Y-83324500D01*
X134277123Y-83324501D01*
X134217516Y-83330908D01*
X134082671Y-83381202D01*
X134082664Y-83381206D01*
X133967455Y-83467452D01*
X133967452Y-83467455D01*
X133881206Y-83582664D01*
X133881202Y-83582671D01*
X133830908Y-83717517D01*
X133824501Y-83777116D01*
X133824500Y-83777135D01*
X132250500Y-83777135D01*
X132250500Y-82874500D01*
X132270185Y-82807461D01*
X132322989Y-82761706D01*
X132374500Y-82750500D01*
X139188429Y-82750500D01*
X139255468Y-82770185D01*
G37*
%TD.AperFunction*%
%TA.AperFunction,Conductor*%
G36*
X143192539Y-82770185D02*
G01*
X143238294Y-82822989D01*
X143249500Y-82874500D01*
X143249500Y-98125500D01*
X143229815Y-98192539D01*
X143177011Y-98238294D01*
X143125500Y-98249500D01*
X141249110Y-98249500D01*
X141182071Y-98229815D01*
X141136316Y-98177011D01*
X141126372Y-98107853D01*
X141155397Y-98044297D01*
X141177987Y-98023925D01*
X141371401Y-97888495D01*
X141538495Y-97721401D01*
X141674035Y-97527830D01*
X141773903Y-97313663D01*
X141835063Y-97085408D01*
X141855659Y-96850000D01*
X141835063Y-96614592D01*
X141773903Y-96386337D01*
X141674035Y-96172171D01*
X141642588Y-96127259D01*
X141538494Y-95978597D01*
X141371402Y-95811506D01*
X141371401Y-95811505D01*
X141185405Y-95681269D01*
X141141781Y-95626692D01*
X141134588Y-95557193D01*
X141166110Y-95494839D01*
X141185405Y-95478119D01*
X141371082Y-95348105D01*
X141538105Y-95181082D01*
X141673600Y-94987578D01*
X141773429Y-94773492D01*
X141773432Y-94773486D01*
X141830636Y-94560000D01*
X140933012Y-94560000D01*
X140965925Y-94502993D01*
X141000000Y-94375826D01*
X141000000Y-94244174D01*
X140965925Y-94117007D01*
X140933012Y-94060000D01*
X141830636Y-94060000D01*
X141830635Y-94059999D01*
X141773432Y-93846513D01*
X141773429Y-93846507D01*
X141673600Y-93632422D01*
X141673599Y-93632420D01*
X141538113Y-93438926D01*
X141538108Y-93438920D01*
X141371078Y-93271890D01*
X141185405Y-93141879D01*
X141141780Y-93087302D01*
X141134588Y-93017804D01*
X141166110Y-92955449D01*
X141185406Y-92938730D01*
X141371401Y-92808495D01*
X141538495Y-92641401D01*
X141674035Y-92447830D01*
X141773903Y-92233663D01*
X141835063Y-92005408D01*
X141855659Y-91770000D01*
X141835063Y-91534592D01*
X141773903Y-91306337D01*
X141674035Y-91092171D01*
X141609147Y-90999500D01*
X141538494Y-90898597D01*
X141371402Y-90731506D01*
X141371396Y-90731501D01*
X141185842Y-90601575D01*
X141142217Y-90546998D01*
X141135023Y-90477500D01*
X141166546Y-90415145D01*
X141185842Y-90398425D01*
X141261275Y-90345606D01*
X141371401Y-90268495D01*
X141538495Y-90101401D01*
X141674035Y-89907830D01*
X141773903Y-89693663D01*
X141835063Y-89465408D01*
X141855659Y-89230000D01*
X141835063Y-88994592D01*
X141773903Y-88766337D01*
X141674035Y-88552171D01*
X141600632Y-88447339D01*
X141538494Y-88358597D01*
X141371402Y-88191506D01*
X141371396Y-88191501D01*
X141185842Y-88061575D01*
X141142217Y-88006998D01*
X141135023Y-87937500D01*
X141166546Y-87875145D01*
X141185842Y-87858425D01*
X141208026Y-87842891D01*
X141371401Y-87728495D01*
X141538495Y-87561401D01*
X141674035Y-87367830D01*
X141773903Y-87153663D01*
X141835063Y-86925408D01*
X141855659Y-86690000D01*
X141835063Y-86454592D01*
X141773903Y-86226337D01*
X141674035Y-86012171D01*
X141580642Y-85878792D01*
X141538496Y-85818600D01*
X141490852Y-85770956D01*
X141416567Y-85696671D01*
X141383084Y-85635351D01*
X141388068Y-85565659D01*
X141429939Y-85509725D01*
X141460915Y-85492810D01*
X141592331Y-85443796D01*
X141707546Y-85357546D01*
X141793796Y-85242331D01*
X141844091Y-85107483D01*
X141850500Y-85047873D01*
X141850499Y-83252128D01*
X141844091Y-83192517D01*
X141793796Y-83057669D01*
X141793795Y-83057668D01*
X141793793Y-83057664D01*
X141712305Y-82948811D01*
X141687887Y-82883347D01*
X141702738Y-82815074D01*
X141752143Y-82765668D01*
X141811571Y-82750500D01*
X143125500Y-82750500D01*
X143192539Y-82770185D01*
G37*
%TD.AperFunction*%
%TD*%
M02*
