M48
; DRILL file {KiCad 8.0.8-rc1} date 2026-02-12T14:51:59+0900
; FORMAT={-:-/ absolute / inch / decimal}
; #@! TF.CreationDate,2026-02-12T14:51:59+09:00
; #@! TF.GenerationSoftware,Kicad,Pcbnew,8.0.8-rc1
; #@! TF.FileFunction,Plated,1,2,PTH
FMAT,2
INCH
; #@! TA.AperFunction,Plated,PTH,ComponentDrill
T1C0.0315
; #@! TA.AperFunction,Plated,PTH,ComponentDrill
T2C0.0394
%
G90
G05
T1
X5.315Y-3.3268
X5.315Y-3.4055
X5.315Y-3.4843
X5.315Y-3.563
X5.315Y-3.6417
X5.315Y-3.7205
X5.315Y-3.7992
X5.3937Y-3.3268
X5.3937Y-3.4055
X5.3937Y-3.4843
X5.3937Y-3.563
X5.3937Y-3.6417
X5.3937Y-3.7205
X5.3937Y-3.7992
T2
X5.5315Y-3.313
X5.5315Y-3.413
X5.5315Y-3.513
X5.5315Y-3.613
X5.5315Y-3.713
X5.5315Y-3.813
M30
