%TF.GenerationSoftware,KiCad,Pcbnew,8.0.8-rc1*%
%TF.CreationDate,2026-02-12T14:51:53+09:00*%
%TF.ProjectId,jtag_14pa,6a746167-5f31-4347-9061-2e6b69636164,rev?*%
%TF.SameCoordinates,Original*%
%TF.FileFunction,Legend,Top*%
%TF.FilePolarity,Positive*%
%FSLAX46Y46*%
G04 Gerber Fmt 4.6, Leading zero omitted, Abs format (unit mm)*
G04 Created by KiCad (PCBNEW 8.0.8-rc1) date 2026-02-12 14:51:53*
%MOMM*%
%LPD*%
G01*
G04 APERTURE LIST*
%ADD10C,0.100000*%
%ADD11C,0.125000*%
%ADD12C,0.120000*%
G04 APERTURE END LIST*
D10*
X131952381Y-104857419D02*
X131380953Y-104857419D01*
X131666667Y-104857419D02*
X131666667Y-103857419D01*
X131666667Y-103857419D02*
X131571429Y-104000276D01*
X131571429Y-104000276D02*
X131476191Y-104095514D01*
X131476191Y-104095514D02*
X131380953Y-104143133D01*
X132857143Y-103857419D02*
X132380953Y-103857419D01*
X132380953Y-103857419D02*
X132333334Y-104333609D01*
X132333334Y-104333609D02*
X132380953Y-104285990D01*
X132380953Y-104285990D02*
X132476191Y-104238371D01*
X132476191Y-104238371D02*
X132714286Y-104238371D01*
X132714286Y-104238371D02*
X132809524Y-104285990D01*
X132809524Y-104285990D02*
X132857143Y-104333609D01*
X132857143Y-104333609D02*
X132904762Y-104428847D01*
X132904762Y-104428847D02*
X132904762Y-104666942D01*
X132904762Y-104666942D02*
X132857143Y-104762180D01*
X132857143Y-104762180D02*
X132809524Y-104809800D01*
X132809524Y-104809800D02*
X132714286Y-104857419D01*
X132714286Y-104857419D02*
X132476191Y-104857419D01*
X132476191Y-104857419D02*
X132380953Y-104809800D01*
X132380953Y-104809800D02*
X132333334Y-104762180D01*
X133333334Y-104762180D02*
X133380953Y-104809800D01*
X133380953Y-104809800D02*
X133333334Y-104857419D01*
X133333334Y-104857419D02*
X133285715Y-104809800D01*
X133285715Y-104809800D02*
X133333334Y-104762180D01*
X133333334Y-104762180D02*
X133333334Y-104857419D01*
X134285714Y-103857419D02*
X133809524Y-103857419D01*
X133809524Y-103857419D02*
X133761905Y-104333609D01*
X133761905Y-104333609D02*
X133809524Y-104285990D01*
X133809524Y-104285990D02*
X133904762Y-104238371D01*
X133904762Y-104238371D02*
X134142857Y-104238371D01*
X134142857Y-104238371D02*
X134238095Y-104285990D01*
X134238095Y-104285990D02*
X134285714Y-104333609D01*
X134285714Y-104333609D02*
X134333333Y-104428847D01*
X134333333Y-104428847D02*
X134333333Y-104666942D01*
X134333333Y-104666942D02*
X134285714Y-104762180D01*
X134285714Y-104762180D02*
X134238095Y-104809800D01*
X134238095Y-104809800D02*
X134142857Y-104857419D01*
X134142857Y-104857419D02*
X133904762Y-104857419D01*
X133904762Y-104857419D02*
X133809524Y-104809800D01*
X133809524Y-104809800D02*
X133761905Y-104762180D01*
X134952381Y-103857419D02*
X135047619Y-103857419D01*
X135047619Y-103857419D02*
X135142857Y-103905038D01*
X135142857Y-103905038D02*
X135190476Y-103952657D01*
X135190476Y-103952657D02*
X135238095Y-104047895D01*
X135238095Y-104047895D02*
X135285714Y-104238371D01*
X135285714Y-104238371D02*
X135285714Y-104476466D01*
X135285714Y-104476466D02*
X135238095Y-104666942D01*
X135238095Y-104666942D02*
X135190476Y-104762180D01*
X135190476Y-104762180D02*
X135142857Y-104809800D01*
X135142857Y-104809800D02*
X135047619Y-104857419D01*
X135047619Y-104857419D02*
X134952381Y-104857419D01*
X134952381Y-104857419D02*
X134857143Y-104809800D01*
X134857143Y-104809800D02*
X134809524Y-104762180D01*
X134809524Y-104762180D02*
X134761905Y-104666942D01*
X134761905Y-104666942D02*
X134714286Y-104476466D01*
X134714286Y-104476466D02*
X134714286Y-104238371D01*
X134714286Y-104238371D02*
X134761905Y-104047895D01*
X134761905Y-104047895D02*
X134809524Y-103952657D01*
X134809524Y-103952657D02*
X134857143Y-103905038D01*
X134857143Y-103905038D02*
X134952381Y-103857419D01*
X135904762Y-103857419D02*
X136000000Y-103857419D01*
X136000000Y-103857419D02*
X136095238Y-103905038D01*
X136095238Y-103905038D02*
X136142857Y-103952657D01*
X136142857Y-103952657D02*
X136190476Y-104047895D01*
X136190476Y-104047895D02*
X136238095Y-104238371D01*
X136238095Y-104238371D02*
X136238095Y-104476466D01*
X136238095Y-104476466D02*
X136190476Y-104666942D01*
X136190476Y-104666942D02*
X136142857Y-104762180D01*
X136142857Y-104762180D02*
X136095238Y-104809800D01*
X136095238Y-104809800D02*
X136000000Y-104857419D01*
X136000000Y-104857419D02*
X135904762Y-104857419D01*
X135904762Y-104857419D02*
X135809524Y-104809800D01*
X135809524Y-104809800D02*
X135761905Y-104762180D01*
X135761905Y-104762180D02*
X135714286Y-104666942D01*
X135714286Y-104666942D02*
X135666667Y-104476466D01*
X135666667Y-104476466D02*
X135666667Y-104238371D01*
X135666667Y-104238371D02*
X135714286Y-104047895D01*
X135714286Y-104047895D02*
X135761905Y-103952657D01*
X135761905Y-103952657D02*
X135809524Y-103905038D01*
X135809524Y-103905038D02*
X135904762Y-103857419D01*
X136857143Y-103857419D02*
X136952381Y-103857419D01*
X136952381Y-103857419D02*
X137047619Y-103905038D01*
X137047619Y-103905038D02*
X137095238Y-103952657D01*
X137095238Y-103952657D02*
X137142857Y-104047895D01*
X137142857Y-104047895D02*
X137190476Y-104238371D01*
X137190476Y-104238371D02*
X137190476Y-104476466D01*
X137190476Y-104476466D02*
X137142857Y-104666942D01*
X137142857Y-104666942D02*
X137095238Y-104762180D01*
X137095238Y-104762180D02*
X137047619Y-104809800D01*
X137047619Y-104809800D02*
X136952381Y-104857419D01*
X136952381Y-104857419D02*
X136857143Y-104857419D01*
X136857143Y-104857419D02*
X136761905Y-104809800D01*
X136761905Y-104809800D02*
X136714286Y-104762180D01*
X136714286Y-104762180D02*
X136666667Y-104666942D01*
X136666667Y-104666942D02*
X136619048Y-104476466D01*
X136619048Y-104476466D02*
X136619048Y-104238371D01*
X136619048Y-104238371D02*
X136666667Y-104047895D01*
X136666667Y-104047895D02*
X136714286Y-103952657D01*
X136714286Y-103952657D02*
X136761905Y-103905038D01*
X136761905Y-103905038D02*
X136857143Y-103857419D01*
X138380953Y-104857419D02*
X138380953Y-104190752D01*
X138380953Y-104285990D02*
X138428572Y-104238371D01*
X138428572Y-104238371D02*
X138523810Y-104190752D01*
X138523810Y-104190752D02*
X138666667Y-104190752D01*
X138666667Y-104190752D02*
X138761905Y-104238371D01*
X138761905Y-104238371D02*
X138809524Y-104333609D01*
X138809524Y-104333609D02*
X138809524Y-104857419D01*
X138809524Y-104333609D02*
X138857143Y-104238371D01*
X138857143Y-104238371D02*
X138952381Y-104190752D01*
X138952381Y-104190752D02*
X139095238Y-104190752D01*
X139095238Y-104190752D02*
X139190477Y-104238371D01*
X139190477Y-104238371D02*
X139238096Y-104333609D01*
X139238096Y-104333609D02*
X139238096Y-104857419D01*
X139714286Y-104857419D02*
X139714286Y-104190752D01*
X139714286Y-104285990D02*
X139761905Y-104238371D01*
X139761905Y-104238371D02*
X139857143Y-104190752D01*
X139857143Y-104190752D02*
X140000000Y-104190752D01*
X140000000Y-104190752D02*
X140095238Y-104238371D01*
X140095238Y-104238371D02*
X140142857Y-104333609D01*
X140142857Y-104333609D02*
X140142857Y-104857419D01*
X140142857Y-104333609D02*
X140190476Y-104238371D01*
X140190476Y-104238371D02*
X140285714Y-104190752D01*
X140285714Y-104190752D02*
X140428571Y-104190752D01*
X140428571Y-104190752D02*
X140523810Y-104238371D01*
X140523810Y-104238371D02*
X140571429Y-104333609D01*
X140571429Y-104333609D02*
X140571429Y-104857419D01*
X128250000Y-91000000D02*
X128250000Y-106086420D01*
X143750000Y-91000000D02*
X143750000Y-106086420D01*
X128250000Y-105500000D02*
X143750000Y-105500000D01*
X128250000Y-105500000D02*
X143750000Y-105500000D01*
X128250000Y-105500000D02*
X129376504Y-104913579D01*
X128250000Y-105500000D02*
X129376504Y-106086421D01*
X143750000Y-105500000D02*
X142623496Y-106086421D01*
X143750000Y-105500000D02*
X142623496Y-104913579D01*
D11*
X143154404Y-89158426D02*
X143154404Y-89615569D01*
X142354404Y-89386997D02*
X143154404Y-89386997D01*
X142354404Y-89882236D02*
X143154404Y-89882236D01*
X143154404Y-89882236D02*
X143154404Y-90072712D01*
X143154404Y-90072712D02*
X143116309Y-90186998D01*
X143116309Y-90186998D02*
X143040119Y-90263188D01*
X143040119Y-90263188D02*
X142963928Y-90301283D01*
X142963928Y-90301283D02*
X142811547Y-90339379D01*
X142811547Y-90339379D02*
X142697261Y-90339379D01*
X142697261Y-90339379D02*
X142544880Y-90301283D01*
X142544880Y-90301283D02*
X142468690Y-90263188D01*
X142468690Y-90263188D02*
X142392500Y-90186998D01*
X142392500Y-90186998D02*
X142354404Y-90072712D01*
X142354404Y-90072712D02*
X142354404Y-89882236D01*
X143154404Y-90834617D02*
X143154404Y-90986998D01*
X143154404Y-90986998D02*
X143116309Y-91063188D01*
X143116309Y-91063188D02*
X143040119Y-91139379D01*
X143040119Y-91139379D02*
X142887738Y-91177474D01*
X142887738Y-91177474D02*
X142621071Y-91177474D01*
X142621071Y-91177474D02*
X142468690Y-91139379D01*
X142468690Y-91139379D02*
X142392500Y-91063188D01*
X142392500Y-91063188D02*
X142354404Y-90986998D01*
X142354404Y-90986998D02*
X142354404Y-90834617D01*
X142354404Y-90834617D02*
X142392500Y-90758426D01*
X142392500Y-90758426D02*
X142468690Y-90682236D01*
X142468690Y-90682236D02*
X142621071Y-90644140D01*
X142621071Y-90644140D02*
X142887738Y-90644140D01*
X142887738Y-90644140D02*
X143040119Y-90682236D01*
X143040119Y-90682236D02*
X143116309Y-90758426D01*
X143116309Y-90758426D02*
X143154404Y-90834617D01*
X143154404Y-87158426D02*
X143154404Y-87615569D01*
X142354404Y-87386997D02*
X143154404Y-87386997D01*
X142354404Y-87882236D02*
X143154404Y-87882236D01*
X143154404Y-87882236D02*
X143154404Y-88072712D01*
X143154404Y-88072712D02*
X143116309Y-88186998D01*
X143116309Y-88186998D02*
X143040119Y-88263188D01*
X143040119Y-88263188D02*
X142963928Y-88301283D01*
X142963928Y-88301283D02*
X142811547Y-88339379D01*
X142811547Y-88339379D02*
X142697261Y-88339379D01*
X142697261Y-88339379D02*
X142544880Y-88301283D01*
X142544880Y-88301283D02*
X142468690Y-88263188D01*
X142468690Y-88263188D02*
X142392500Y-88186998D01*
X142392500Y-88186998D02*
X142354404Y-88072712D01*
X142354404Y-88072712D02*
X142354404Y-87882236D01*
X142354404Y-88682236D02*
X143154404Y-88682236D01*
X143154404Y-95908426D02*
X142354404Y-96175093D01*
X142354404Y-96175093D02*
X143154404Y-96441759D01*
X142354404Y-96708426D02*
X143154404Y-96708426D01*
X143154404Y-96708426D02*
X143154404Y-96898902D01*
X143154404Y-96898902D02*
X143116309Y-97013188D01*
X143116309Y-97013188D02*
X143040119Y-97089378D01*
X143040119Y-97089378D02*
X142963928Y-97127473D01*
X142963928Y-97127473D02*
X142811547Y-97165569D01*
X142811547Y-97165569D02*
X142697261Y-97165569D01*
X142697261Y-97165569D02*
X142544880Y-97127473D01*
X142544880Y-97127473D02*
X142468690Y-97089378D01*
X142468690Y-97089378D02*
X142392500Y-97013188D01*
X142392500Y-97013188D02*
X142354404Y-96898902D01*
X142354404Y-96898902D02*
X142354404Y-96708426D01*
X142354404Y-97508426D02*
X143154404Y-97508426D01*
X143154404Y-97508426D02*
X143154404Y-97698902D01*
X143154404Y-97698902D02*
X143116309Y-97813188D01*
X143116309Y-97813188D02*
X143040119Y-97889378D01*
X143040119Y-97889378D02*
X142963928Y-97927473D01*
X142963928Y-97927473D02*
X142811547Y-97965569D01*
X142811547Y-97965569D02*
X142697261Y-97965569D01*
X142697261Y-97965569D02*
X142544880Y-97927473D01*
X142544880Y-97927473D02*
X142468690Y-97889378D01*
X142468690Y-97889378D02*
X142392500Y-97813188D01*
X142392500Y-97813188D02*
X142354404Y-97698902D01*
X142354404Y-97698902D02*
X142354404Y-97508426D01*
X143154404Y-84408426D02*
X143154404Y-84865569D01*
X142354404Y-84636997D02*
X143154404Y-84636997D01*
X142354404Y-85132236D02*
X143154404Y-85132236D01*
X143154404Y-85132236D02*
X142582976Y-85398902D01*
X142582976Y-85398902D02*
X143154404Y-85665569D01*
X143154404Y-85665569D02*
X142354404Y-85665569D01*
X142392500Y-86008426D02*
X142354404Y-86122712D01*
X142354404Y-86122712D02*
X142354404Y-86313188D01*
X142354404Y-86313188D02*
X142392500Y-86389379D01*
X142392500Y-86389379D02*
X142430595Y-86427474D01*
X142430595Y-86427474D02*
X142506785Y-86465569D01*
X142506785Y-86465569D02*
X142582976Y-86465569D01*
X142582976Y-86465569D02*
X142659166Y-86427474D01*
X142659166Y-86427474D02*
X142697261Y-86389379D01*
X142697261Y-86389379D02*
X142735357Y-86313188D01*
X142735357Y-86313188D02*
X142773452Y-86160807D01*
X142773452Y-86160807D02*
X142811547Y-86084617D01*
X142811547Y-86084617D02*
X142849642Y-86046522D01*
X142849642Y-86046522D02*
X142925833Y-86008426D01*
X142925833Y-86008426D02*
X143002023Y-86008426D01*
X143002023Y-86008426D02*
X143078214Y-86046522D01*
X143078214Y-86046522D02*
X143116309Y-86084617D01*
X143116309Y-86084617D02*
X143154404Y-86160807D01*
X143154404Y-86160807D02*
X143154404Y-86351284D01*
X143154404Y-86351284D02*
X143116309Y-86465569D01*
X143154404Y-91658426D02*
X143154404Y-92115569D01*
X142354404Y-91886997D02*
X143154404Y-91886997D01*
X142430595Y-92839379D02*
X142392500Y-92801283D01*
X142392500Y-92801283D02*
X142354404Y-92686998D01*
X142354404Y-92686998D02*
X142354404Y-92610807D01*
X142354404Y-92610807D02*
X142392500Y-92496521D01*
X142392500Y-92496521D02*
X142468690Y-92420331D01*
X142468690Y-92420331D02*
X142544880Y-92382236D01*
X142544880Y-92382236D02*
X142697261Y-92344140D01*
X142697261Y-92344140D02*
X142811547Y-92344140D01*
X142811547Y-92344140D02*
X142963928Y-92382236D01*
X142963928Y-92382236D02*
X143040119Y-92420331D01*
X143040119Y-92420331D02*
X143116309Y-92496521D01*
X143116309Y-92496521D02*
X143154404Y-92610807D01*
X143154404Y-92610807D02*
X143154404Y-92686998D01*
X143154404Y-92686998D02*
X143116309Y-92801283D01*
X143116309Y-92801283D02*
X143078214Y-92839379D01*
X142354404Y-93182236D02*
X143154404Y-93182236D01*
X142354404Y-93639379D02*
X142811547Y-93296521D01*
X143154404Y-93639379D02*
X142697261Y-93182236D01*
X133404404Y-88251283D02*
X132832976Y-88251283D01*
X132832976Y-88251283D02*
X132718690Y-88213188D01*
X132718690Y-88213188D02*
X132642500Y-88136997D01*
X132642500Y-88136997D02*
X132604404Y-88022712D01*
X132604404Y-88022712D02*
X132604404Y-87946521D01*
X133404404Y-88517950D02*
X133404404Y-88975093D01*
X132604404Y-88746521D02*
X133404404Y-88746521D01*
X132832976Y-89203664D02*
X132832976Y-89584617D01*
X132604404Y-89127474D02*
X133404404Y-89394141D01*
X133404404Y-89394141D02*
X132604404Y-89660807D01*
X133366309Y-90346521D02*
X133404404Y-90270331D01*
X133404404Y-90270331D02*
X133404404Y-90156045D01*
X133404404Y-90156045D02*
X133366309Y-90041759D01*
X133366309Y-90041759D02*
X133290119Y-89965569D01*
X133290119Y-89965569D02*
X133213928Y-89927474D01*
X133213928Y-89927474D02*
X133061547Y-89889378D01*
X133061547Y-89889378D02*
X132947261Y-89889378D01*
X132947261Y-89889378D02*
X132794880Y-89927474D01*
X132794880Y-89927474D02*
X132718690Y-89965569D01*
X132718690Y-89965569D02*
X132642500Y-90041759D01*
X132642500Y-90041759D02*
X132604404Y-90156045D01*
X132604404Y-90156045D02*
X132604404Y-90232236D01*
X132604404Y-90232236D02*
X132642500Y-90346521D01*
X132642500Y-90346521D02*
X132680595Y-90384617D01*
X132680595Y-90384617D02*
X132947261Y-90384617D01*
X132947261Y-90384617D02*
X132947261Y-90232236D01*
X132604404Y-91756045D02*
X132604404Y-91298902D01*
X132604404Y-91527474D02*
X133404404Y-91527474D01*
X133404404Y-91527474D02*
X133290119Y-91451283D01*
X133290119Y-91451283D02*
X133213928Y-91375093D01*
X133213928Y-91375093D02*
X133175833Y-91298902D01*
X133137738Y-92441760D02*
X132604404Y-92441760D01*
X133442500Y-92251284D02*
X132871071Y-92060807D01*
X132871071Y-92060807D02*
X132871071Y-92556046D01*
X132604404Y-92860808D02*
X133404404Y-92860808D01*
X133404404Y-92860808D02*
X133404404Y-93165570D01*
X133404404Y-93165570D02*
X133366309Y-93241760D01*
X133366309Y-93241760D02*
X133328214Y-93279855D01*
X133328214Y-93279855D02*
X133252023Y-93317951D01*
X133252023Y-93317951D02*
X133137738Y-93317951D01*
X133137738Y-93317951D02*
X133061547Y-93279855D01*
X133061547Y-93279855D02*
X133023452Y-93241760D01*
X133023452Y-93241760D02*
X132985357Y-93165570D01*
X132985357Y-93165570D02*
X132985357Y-92860808D01*
X132832976Y-93622712D02*
X132832976Y-94003665D01*
X132604404Y-93546522D02*
X133404404Y-93813189D01*
X133404404Y-93813189D02*
X132604404Y-94079855D01*
X143116309Y-95191759D02*
X143154404Y-95115569D01*
X143154404Y-95115569D02*
X143154404Y-95001283D01*
X143154404Y-95001283D02*
X143116309Y-94886997D01*
X143116309Y-94886997D02*
X143040119Y-94810807D01*
X143040119Y-94810807D02*
X142963928Y-94772712D01*
X142963928Y-94772712D02*
X142811547Y-94734616D01*
X142811547Y-94734616D02*
X142697261Y-94734616D01*
X142697261Y-94734616D02*
X142544880Y-94772712D01*
X142544880Y-94772712D02*
X142468690Y-94810807D01*
X142468690Y-94810807D02*
X142392500Y-94886997D01*
X142392500Y-94886997D02*
X142354404Y-95001283D01*
X142354404Y-95001283D02*
X142354404Y-95077474D01*
X142354404Y-95077474D02*
X142392500Y-95191759D01*
X142392500Y-95191759D02*
X142430595Y-95229855D01*
X142430595Y-95229855D02*
X142697261Y-95229855D01*
X142697261Y-95229855D02*
X142697261Y-95077474D01*
D10*
X119357419Y-90065475D02*
X119357419Y-89398809D01*
X119357419Y-89398809D02*
X120357419Y-89827380D01*
X120262180Y-89017856D02*
X120309800Y-88970237D01*
X120309800Y-88970237D02*
X120357419Y-89017856D01*
X120357419Y-89017856D02*
X120309800Y-89065475D01*
X120309800Y-89065475D02*
X120262180Y-89017856D01*
X120262180Y-89017856D02*
X120357419Y-89017856D01*
X119452657Y-88589285D02*
X119405038Y-88541666D01*
X119405038Y-88541666D02*
X119357419Y-88446428D01*
X119357419Y-88446428D02*
X119357419Y-88208333D01*
X119357419Y-88208333D02*
X119405038Y-88113095D01*
X119405038Y-88113095D02*
X119452657Y-88065476D01*
X119452657Y-88065476D02*
X119547895Y-88017857D01*
X119547895Y-88017857D02*
X119643133Y-88017857D01*
X119643133Y-88017857D02*
X119785990Y-88065476D01*
X119785990Y-88065476D02*
X120357419Y-88636904D01*
X120357419Y-88636904D02*
X120357419Y-88017857D01*
X119357419Y-87113095D02*
X119357419Y-87589285D01*
X119357419Y-87589285D02*
X119833609Y-87636904D01*
X119833609Y-87636904D02*
X119785990Y-87589285D01*
X119785990Y-87589285D02*
X119738371Y-87494047D01*
X119738371Y-87494047D02*
X119738371Y-87255952D01*
X119738371Y-87255952D02*
X119785990Y-87160714D01*
X119785990Y-87160714D02*
X119833609Y-87113095D01*
X119833609Y-87113095D02*
X119928847Y-87065476D01*
X119928847Y-87065476D02*
X120166942Y-87065476D01*
X120166942Y-87065476D02*
X120262180Y-87113095D01*
X120262180Y-87113095D02*
X120309800Y-87160714D01*
X120309800Y-87160714D02*
X120357419Y-87255952D01*
X120357419Y-87255952D02*
X120357419Y-87494047D01*
X120357419Y-87494047D02*
X120309800Y-87589285D01*
X120309800Y-87589285D02*
X120262180Y-87636904D01*
X119357419Y-86446428D02*
X119357419Y-86351190D01*
X119357419Y-86351190D02*
X119405038Y-86255952D01*
X119405038Y-86255952D02*
X119452657Y-86208333D01*
X119452657Y-86208333D02*
X119547895Y-86160714D01*
X119547895Y-86160714D02*
X119738371Y-86113095D01*
X119738371Y-86113095D02*
X119976466Y-86113095D01*
X119976466Y-86113095D02*
X120166942Y-86160714D01*
X120166942Y-86160714D02*
X120262180Y-86208333D01*
X120262180Y-86208333D02*
X120309800Y-86255952D01*
X120309800Y-86255952D02*
X120357419Y-86351190D01*
X120357419Y-86351190D02*
X120357419Y-86446428D01*
X120357419Y-86446428D02*
X120309800Y-86541666D01*
X120309800Y-86541666D02*
X120262180Y-86589285D01*
X120262180Y-86589285D02*
X120166942Y-86636904D01*
X120166942Y-86636904D02*
X119976466Y-86684523D01*
X119976466Y-86684523D02*
X119738371Y-86684523D01*
X119738371Y-86684523D02*
X119547895Y-86636904D01*
X119547895Y-86636904D02*
X119452657Y-86589285D01*
X119452657Y-86589285D02*
X119405038Y-86541666D01*
X119405038Y-86541666D02*
X119357419Y-86446428D01*
X119357419Y-85494047D02*
X119357419Y-85398809D01*
X119357419Y-85398809D02*
X119405038Y-85303571D01*
X119405038Y-85303571D02*
X119452657Y-85255952D01*
X119452657Y-85255952D02*
X119547895Y-85208333D01*
X119547895Y-85208333D02*
X119738371Y-85160714D01*
X119738371Y-85160714D02*
X119976466Y-85160714D01*
X119976466Y-85160714D02*
X120166942Y-85208333D01*
X120166942Y-85208333D02*
X120262180Y-85255952D01*
X120262180Y-85255952D02*
X120309800Y-85303571D01*
X120309800Y-85303571D02*
X120357419Y-85398809D01*
X120357419Y-85398809D02*
X120357419Y-85494047D01*
X120357419Y-85494047D02*
X120309800Y-85589285D01*
X120309800Y-85589285D02*
X120262180Y-85636904D01*
X120262180Y-85636904D02*
X120166942Y-85684523D01*
X120166942Y-85684523D02*
X119976466Y-85732142D01*
X119976466Y-85732142D02*
X119738371Y-85732142D01*
X119738371Y-85732142D02*
X119547895Y-85684523D01*
X119547895Y-85684523D02*
X119452657Y-85636904D01*
X119452657Y-85636904D02*
X119405038Y-85589285D01*
X119405038Y-85589285D02*
X119357419Y-85494047D01*
X120357419Y-83970237D02*
X119690752Y-83970237D01*
X119785990Y-83970237D02*
X119738371Y-83922618D01*
X119738371Y-83922618D02*
X119690752Y-83827380D01*
X119690752Y-83827380D02*
X119690752Y-83684523D01*
X119690752Y-83684523D02*
X119738371Y-83589285D01*
X119738371Y-83589285D02*
X119833609Y-83541666D01*
X119833609Y-83541666D02*
X120357419Y-83541666D01*
X119833609Y-83541666D02*
X119738371Y-83494047D01*
X119738371Y-83494047D02*
X119690752Y-83398809D01*
X119690752Y-83398809D02*
X119690752Y-83255952D01*
X119690752Y-83255952D02*
X119738371Y-83160713D01*
X119738371Y-83160713D02*
X119833609Y-83113094D01*
X119833609Y-83113094D02*
X120357419Y-83113094D01*
X120357419Y-82636904D02*
X119690752Y-82636904D01*
X119785990Y-82636904D02*
X119738371Y-82589285D01*
X119738371Y-82589285D02*
X119690752Y-82494047D01*
X119690752Y-82494047D02*
X119690752Y-82351190D01*
X119690752Y-82351190D02*
X119738371Y-82255952D01*
X119738371Y-82255952D02*
X119833609Y-82208333D01*
X119833609Y-82208333D02*
X120357419Y-82208333D01*
X119833609Y-82208333D02*
X119738371Y-82160714D01*
X119738371Y-82160714D02*
X119690752Y-82065476D01*
X119690752Y-82065476D02*
X119690752Y-81922619D01*
X119690752Y-81922619D02*
X119738371Y-81827380D01*
X119738371Y-81827380D02*
X119833609Y-81779761D01*
X119833609Y-81779761D02*
X120357419Y-81779761D01*
X131250000Y-82250000D02*
X120413580Y-82250000D01*
X131250000Y-89500000D02*
X120413580Y-89500000D01*
X121000000Y-82250000D02*
X121000000Y-89500000D01*
X121000000Y-82250000D02*
X121000000Y-89500000D01*
X121000000Y-82250000D02*
X121586421Y-83376504D01*
X121000000Y-82250000D02*
X120413579Y-83376504D01*
X121000000Y-89500000D02*
X120413579Y-88373496D01*
X121000000Y-89500000D02*
X121586421Y-88373496D01*
X122202657Y-94642856D02*
X122155038Y-94595237D01*
X122155038Y-94595237D02*
X122107419Y-94499999D01*
X122107419Y-94499999D02*
X122107419Y-94261904D01*
X122107419Y-94261904D02*
X122155038Y-94166666D01*
X122155038Y-94166666D02*
X122202657Y-94119047D01*
X122202657Y-94119047D02*
X122297895Y-94071428D01*
X122297895Y-94071428D02*
X122393133Y-94071428D01*
X122393133Y-94071428D02*
X122535990Y-94119047D01*
X122535990Y-94119047D02*
X123107419Y-94690475D01*
X123107419Y-94690475D02*
X123107419Y-94071428D01*
X123012180Y-93642856D02*
X123059800Y-93595237D01*
X123059800Y-93595237D02*
X123107419Y-93642856D01*
X123107419Y-93642856D02*
X123059800Y-93690475D01*
X123059800Y-93690475D02*
X123012180Y-93642856D01*
X123012180Y-93642856D02*
X123107419Y-93642856D01*
X122107419Y-92976190D02*
X122107419Y-92880952D01*
X122107419Y-92880952D02*
X122155038Y-92785714D01*
X122155038Y-92785714D02*
X122202657Y-92738095D01*
X122202657Y-92738095D02*
X122297895Y-92690476D01*
X122297895Y-92690476D02*
X122488371Y-92642857D01*
X122488371Y-92642857D02*
X122726466Y-92642857D01*
X122726466Y-92642857D02*
X122916942Y-92690476D01*
X122916942Y-92690476D02*
X123012180Y-92738095D01*
X123012180Y-92738095D02*
X123059800Y-92785714D01*
X123059800Y-92785714D02*
X123107419Y-92880952D01*
X123107419Y-92880952D02*
X123107419Y-92976190D01*
X123107419Y-92976190D02*
X123059800Y-93071428D01*
X123059800Y-93071428D02*
X123012180Y-93119047D01*
X123012180Y-93119047D02*
X122916942Y-93166666D01*
X122916942Y-93166666D02*
X122726466Y-93214285D01*
X122726466Y-93214285D02*
X122488371Y-93214285D01*
X122488371Y-93214285D02*
X122297895Y-93166666D01*
X122297895Y-93166666D02*
X122202657Y-93119047D01*
X122202657Y-93119047D02*
X122155038Y-93071428D01*
X122155038Y-93071428D02*
X122107419Y-92976190D01*
X122107419Y-92023809D02*
X122107419Y-91928571D01*
X122107419Y-91928571D02*
X122155038Y-91833333D01*
X122155038Y-91833333D02*
X122202657Y-91785714D01*
X122202657Y-91785714D02*
X122297895Y-91738095D01*
X122297895Y-91738095D02*
X122488371Y-91690476D01*
X122488371Y-91690476D02*
X122726466Y-91690476D01*
X122726466Y-91690476D02*
X122916942Y-91738095D01*
X122916942Y-91738095D02*
X123012180Y-91785714D01*
X123012180Y-91785714D02*
X123059800Y-91833333D01*
X123059800Y-91833333D02*
X123107419Y-91928571D01*
X123107419Y-91928571D02*
X123107419Y-92023809D01*
X123107419Y-92023809D02*
X123059800Y-92119047D01*
X123059800Y-92119047D02*
X123012180Y-92166666D01*
X123012180Y-92166666D02*
X122916942Y-92214285D01*
X122916942Y-92214285D02*
X122726466Y-92261904D01*
X122726466Y-92261904D02*
X122488371Y-92261904D01*
X122488371Y-92261904D02*
X122297895Y-92214285D01*
X122297895Y-92214285D02*
X122202657Y-92166666D01*
X122202657Y-92166666D02*
X122155038Y-92119047D01*
X122155038Y-92119047D02*
X122107419Y-92023809D01*
X122107419Y-91071428D02*
X122107419Y-90976190D01*
X122107419Y-90976190D02*
X122155038Y-90880952D01*
X122155038Y-90880952D02*
X122202657Y-90833333D01*
X122202657Y-90833333D02*
X122297895Y-90785714D01*
X122297895Y-90785714D02*
X122488371Y-90738095D01*
X122488371Y-90738095D02*
X122726466Y-90738095D01*
X122726466Y-90738095D02*
X122916942Y-90785714D01*
X122916942Y-90785714D02*
X123012180Y-90833333D01*
X123012180Y-90833333D02*
X123059800Y-90880952D01*
X123059800Y-90880952D02*
X123107419Y-90976190D01*
X123107419Y-90976190D02*
X123107419Y-91071428D01*
X123107419Y-91071428D02*
X123059800Y-91166666D01*
X123059800Y-91166666D02*
X123012180Y-91214285D01*
X123012180Y-91214285D02*
X122916942Y-91261904D01*
X122916942Y-91261904D02*
X122726466Y-91309523D01*
X122726466Y-91309523D02*
X122488371Y-91309523D01*
X122488371Y-91309523D02*
X122297895Y-91261904D01*
X122297895Y-91261904D02*
X122202657Y-91214285D01*
X122202657Y-91214285D02*
X122155038Y-91166666D01*
X122155038Y-91166666D02*
X122107419Y-91071428D01*
X122107419Y-90119047D02*
X122107419Y-90023809D01*
X122107419Y-90023809D02*
X122155038Y-89928571D01*
X122155038Y-89928571D02*
X122202657Y-89880952D01*
X122202657Y-89880952D02*
X122297895Y-89833333D01*
X122297895Y-89833333D02*
X122488371Y-89785714D01*
X122488371Y-89785714D02*
X122726466Y-89785714D01*
X122726466Y-89785714D02*
X122916942Y-89833333D01*
X122916942Y-89833333D02*
X123012180Y-89880952D01*
X123012180Y-89880952D02*
X123059800Y-89928571D01*
X123059800Y-89928571D02*
X123107419Y-90023809D01*
X123107419Y-90023809D02*
X123107419Y-90119047D01*
X123107419Y-90119047D02*
X123059800Y-90214285D01*
X123059800Y-90214285D02*
X123012180Y-90261904D01*
X123012180Y-90261904D02*
X122916942Y-90309523D01*
X122916942Y-90309523D02*
X122726466Y-90357142D01*
X122726466Y-90357142D02*
X122488371Y-90357142D01*
X122488371Y-90357142D02*
X122297895Y-90309523D01*
X122297895Y-90309523D02*
X122202657Y-90261904D01*
X122202657Y-90261904D02*
X122155038Y-90214285D01*
X122155038Y-90214285D02*
X122107419Y-90119047D01*
X123107419Y-88595237D02*
X122440752Y-88595237D01*
X122535990Y-88595237D02*
X122488371Y-88547618D01*
X122488371Y-88547618D02*
X122440752Y-88452380D01*
X122440752Y-88452380D02*
X122440752Y-88309523D01*
X122440752Y-88309523D02*
X122488371Y-88214285D01*
X122488371Y-88214285D02*
X122583609Y-88166666D01*
X122583609Y-88166666D02*
X123107419Y-88166666D01*
X122583609Y-88166666D02*
X122488371Y-88119047D01*
X122488371Y-88119047D02*
X122440752Y-88023809D01*
X122440752Y-88023809D02*
X122440752Y-87880952D01*
X122440752Y-87880952D02*
X122488371Y-87785713D01*
X122488371Y-87785713D02*
X122583609Y-87738094D01*
X122583609Y-87738094D02*
X123107419Y-87738094D01*
X123107419Y-87261904D02*
X122440752Y-87261904D01*
X122535990Y-87261904D02*
X122488371Y-87214285D01*
X122488371Y-87214285D02*
X122440752Y-87119047D01*
X122440752Y-87119047D02*
X122440752Y-86976190D01*
X122440752Y-86976190D02*
X122488371Y-86880952D01*
X122488371Y-86880952D02*
X122583609Y-86833333D01*
X122583609Y-86833333D02*
X123107419Y-86833333D01*
X122583609Y-86833333D02*
X122488371Y-86785714D01*
X122488371Y-86785714D02*
X122440752Y-86690476D01*
X122440752Y-86690476D02*
X122440752Y-86547619D01*
X122440752Y-86547619D02*
X122488371Y-86452380D01*
X122488371Y-86452380D02*
X122583609Y-86404761D01*
X122583609Y-86404761D02*
X123107419Y-86404761D01*
X127750000Y-89500000D02*
X123163580Y-89500000D01*
X127750000Y-91500000D02*
X123163580Y-91500000D01*
X123750000Y-89500000D02*
X123750000Y-91500000D01*
X123750000Y-89500000D02*
X123750000Y-91500000D01*
X123750000Y-89500000D02*
X124336421Y-90626504D01*
X123750000Y-89500000D02*
X123163579Y-90626504D01*
X123750000Y-91500000D02*
X123163579Y-90373496D01*
X123750000Y-91500000D02*
X124336421Y-90373496D01*
X133702381Y-79607420D02*
X133130953Y-79607420D01*
X133416667Y-79607420D02*
X133416667Y-78607420D01*
X133416667Y-78607420D02*
X133321429Y-78750277D01*
X133321429Y-78750277D02*
X133226191Y-78845515D01*
X133226191Y-78845515D02*
X133130953Y-78893134D01*
X134083334Y-78702658D02*
X134130953Y-78655039D01*
X134130953Y-78655039D02*
X134226191Y-78607420D01*
X134226191Y-78607420D02*
X134464286Y-78607420D01*
X134464286Y-78607420D02*
X134559524Y-78655039D01*
X134559524Y-78655039D02*
X134607143Y-78702658D01*
X134607143Y-78702658D02*
X134654762Y-78797896D01*
X134654762Y-78797896D02*
X134654762Y-78893134D01*
X134654762Y-78893134D02*
X134607143Y-79035991D01*
X134607143Y-79035991D02*
X134035715Y-79607420D01*
X134035715Y-79607420D02*
X134654762Y-79607420D01*
X135083334Y-79512181D02*
X135130953Y-79559801D01*
X135130953Y-79559801D02*
X135083334Y-79607420D01*
X135083334Y-79607420D02*
X135035715Y-79559801D01*
X135035715Y-79559801D02*
X135083334Y-79512181D01*
X135083334Y-79512181D02*
X135083334Y-79607420D01*
X135750000Y-78607420D02*
X135845238Y-78607420D01*
X135845238Y-78607420D02*
X135940476Y-78655039D01*
X135940476Y-78655039D02*
X135988095Y-78702658D01*
X135988095Y-78702658D02*
X136035714Y-78797896D01*
X136035714Y-78797896D02*
X136083333Y-78988372D01*
X136083333Y-78988372D02*
X136083333Y-79226467D01*
X136083333Y-79226467D02*
X136035714Y-79416943D01*
X136035714Y-79416943D02*
X135988095Y-79512181D01*
X135988095Y-79512181D02*
X135940476Y-79559801D01*
X135940476Y-79559801D02*
X135845238Y-79607420D01*
X135845238Y-79607420D02*
X135750000Y-79607420D01*
X135750000Y-79607420D02*
X135654762Y-79559801D01*
X135654762Y-79559801D02*
X135607143Y-79512181D01*
X135607143Y-79512181D02*
X135559524Y-79416943D01*
X135559524Y-79416943D02*
X135511905Y-79226467D01*
X135511905Y-79226467D02*
X135511905Y-78988372D01*
X135511905Y-78988372D02*
X135559524Y-78797896D01*
X135559524Y-78797896D02*
X135607143Y-78702658D01*
X135607143Y-78702658D02*
X135654762Y-78655039D01*
X135654762Y-78655039D02*
X135750000Y-78607420D01*
X136702381Y-78607420D02*
X136797619Y-78607420D01*
X136797619Y-78607420D02*
X136892857Y-78655039D01*
X136892857Y-78655039D02*
X136940476Y-78702658D01*
X136940476Y-78702658D02*
X136988095Y-78797896D01*
X136988095Y-78797896D02*
X137035714Y-78988372D01*
X137035714Y-78988372D02*
X137035714Y-79226467D01*
X137035714Y-79226467D02*
X136988095Y-79416943D01*
X136988095Y-79416943D02*
X136940476Y-79512181D01*
X136940476Y-79512181D02*
X136892857Y-79559801D01*
X136892857Y-79559801D02*
X136797619Y-79607420D01*
X136797619Y-79607420D02*
X136702381Y-79607420D01*
X136702381Y-79607420D02*
X136607143Y-79559801D01*
X136607143Y-79559801D02*
X136559524Y-79512181D01*
X136559524Y-79512181D02*
X136511905Y-79416943D01*
X136511905Y-79416943D02*
X136464286Y-79226467D01*
X136464286Y-79226467D02*
X136464286Y-78988372D01*
X136464286Y-78988372D02*
X136511905Y-78797896D01*
X136511905Y-78797896D02*
X136559524Y-78702658D01*
X136559524Y-78702658D02*
X136607143Y-78655039D01*
X136607143Y-78655039D02*
X136702381Y-78607420D01*
X137654762Y-78607420D02*
X137750000Y-78607420D01*
X137750000Y-78607420D02*
X137845238Y-78655039D01*
X137845238Y-78655039D02*
X137892857Y-78702658D01*
X137892857Y-78702658D02*
X137940476Y-78797896D01*
X137940476Y-78797896D02*
X137988095Y-78988372D01*
X137988095Y-78988372D02*
X137988095Y-79226467D01*
X137988095Y-79226467D02*
X137940476Y-79416943D01*
X137940476Y-79416943D02*
X137892857Y-79512181D01*
X137892857Y-79512181D02*
X137845238Y-79559801D01*
X137845238Y-79559801D02*
X137750000Y-79607420D01*
X137750000Y-79607420D02*
X137654762Y-79607420D01*
X137654762Y-79607420D02*
X137559524Y-79559801D01*
X137559524Y-79559801D02*
X137511905Y-79512181D01*
X137511905Y-79512181D02*
X137464286Y-79416943D01*
X137464286Y-79416943D02*
X137416667Y-79226467D01*
X137416667Y-79226467D02*
X137416667Y-78988372D01*
X137416667Y-78988372D02*
X137464286Y-78797896D01*
X137464286Y-78797896D02*
X137511905Y-78702658D01*
X137511905Y-78702658D02*
X137559524Y-78655039D01*
X137559524Y-78655039D02*
X137654762Y-78607420D01*
X138607143Y-78607420D02*
X138702381Y-78607420D01*
X138702381Y-78607420D02*
X138797619Y-78655039D01*
X138797619Y-78655039D02*
X138845238Y-78702658D01*
X138845238Y-78702658D02*
X138892857Y-78797896D01*
X138892857Y-78797896D02*
X138940476Y-78988372D01*
X138940476Y-78988372D02*
X138940476Y-79226467D01*
X138940476Y-79226467D02*
X138892857Y-79416943D01*
X138892857Y-79416943D02*
X138845238Y-79512181D01*
X138845238Y-79512181D02*
X138797619Y-79559801D01*
X138797619Y-79559801D02*
X138702381Y-79607420D01*
X138702381Y-79607420D02*
X138607143Y-79607420D01*
X138607143Y-79607420D02*
X138511905Y-79559801D01*
X138511905Y-79559801D02*
X138464286Y-79512181D01*
X138464286Y-79512181D02*
X138416667Y-79416943D01*
X138416667Y-79416943D02*
X138369048Y-79226467D01*
X138369048Y-79226467D02*
X138369048Y-78988372D01*
X138369048Y-78988372D02*
X138416667Y-78797896D01*
X138416667Y-78797896D02*
X138464286Y-78702658D01*
X138464286Y-78702658D02*
X138511905Y-78655039D01*
X138511905Y-78655039D02*
X138607143Y-78607420D01*
X140130953Y-79607420D02*
X140130953Y-78940753D01*
X140130953Y-79035991D02*
X140178572Y-78988372D01*
X140178572Y-78988372D02*
X140273810Y-78940753D01*
X140273810Y-78940753D02*
X140416667Y-78940753D01*
X140416667Y-78940753D02*
X140511905Y-78988372D01*
X140511905Y-78988372D02*
X140559524Y-79083610D01*
X140559524Y-79083610D02*
X140559524Y-79607420D01*
X140559524Y-79083610D02*
X140607143Y-78988372D01*
X140607143Y-78988372D02*
X140702381Y-78940753D01*
X140702381Y-78940753D02*
X140845238Y-78940753D01*
X140845238Y-78940753D02*
X140940477Y-78988372D01*
X140940477Y-78988372D02*
X140988096Y-79083610D01*
X140988096Y-79083610D02*
X140988096Y-79607420D01*
X141464286Y-79607420D02*
X141464286Y-78940753D01*
X141464286Y-79035991D02*
X141511905Y-78988372D01*
X141511905Y-78988372D02*
X141607143Y-78940753D01*
X141607143Y-78940753D02*
X141750000Y-78940753D01*
X141750000Y-78940753D02*
X141845238Y-78988372D01*
X141845238Y-78988372D02*
X141892857Y-79083610D01*
X141892857Y-79083610D02*
X141892857Y-79607420D01*
X141892857Y-79083610D02*
X141940476Y-78988372D01*
X141940476Y-78988372D02*
X142035714Y-78940753D01*
X142035714Y-78940753D02*
X142178571Y-78940753D01*
X142178571Y-78940753D02*
X142273810Y-78988372D01*
X142273810Y-78988372D02*
X142321429Y-79083610D01*
X142321429Y-79083610D02*
X142321429Y-79607420D01*
X143750000Y-81750000D02*
X143750000Y-79663581D01*
X131750000Y-81750000D02*
X131750000Y-79663581D01*
X143750000Y-80250001D02*
X131750000Y-80250001D01*
X143750000Y-80250001D02*
X131750000Y-80250001D01*
X143750000Y-80250001D02*
X142623496Y-80836422D01*
X143750000Y-80250001D02*
X142623496Y-79663580D01*
X131750000Y-80250001D02*
X132876504Y-79663580D01*
X131750000Y-80250001D02*
X132876504Y-80836422D01*
X147107419Y-94547618D02*
X147107419Y-95119046D01*
X147107419Y-94833332D02*
X146107419Y-94833332D01*
X146107419Y-94833332D02*
X146250276Y-94928570D01*
X146250276Y-94928570D02*
X146345514Y-95023808D01*
X146345514Y-95023808D02*
X146393133Y-95119046D01*
X146107419Y-93690475D02*
X146107419Y-93880951D01*
X146107419Y-93880951D02*
X146155038Y-93976189D01*
X146155038Y-93976189D02*
X146202657Y-94023808D01*
X146202657Y-94023808D02*
X146345514Y-94119046D01*
X146345514Y-94119046D02*
X146535990Y-94166665D01*
X146535990Y-94166665D02*
X146916942Y-94166665D01*
X146916942Y-94166665D02*
X147012180Y-94119046D01*
X147012180Y-94119046D02*
X147059800Y-94071427D01*
X147059800Y-94071427D02*
X147107419Y-93976189D01*
X147107419Y-93976189D02*
X147107419Y-93785713D01*
X147107419Y-93785713D02*
X147059800Y-93690475D01*
X147059800Y-93690475D02*
X147012180Y-93642856D01*
X147012180Y-93642856D02*
X146916942Y-93595237D01*
X146916942Y-93595237D02*
X146678847Y-93595237D01*
X146678847Y-93595237D02*
X146583609Y-93642856D01*
X146583609Y-93642856D02*
X146535990Y-93690475D01*
X146535990Y-93690475D02*
X146488371Y-93785713D01*
X146488371Y-93785713D02*
X146488371Y-93976189D01*
X146488371Y-93976189D02*
X146535990Y-94071427D01*
X146535990Y-94071427D02*
X146583609Y-94119046D01*
X146583609Y-94119046D02*
X146678847Y-94166665D01*
X147012180Y-93166665D02*
X147059800Y-93119046D01*
X147059800Y-93119046D02*
X147107419Y-93166665D01*
X147107419Y-93166665D02*
X147059800Y-93214284D01*
X147059800Y-93214284D02*
X147012180Y-93166665D01*
X147012180Y-93166665D02*
X147107419Y-93166665D01*
X146107419Y-92214285D02*
X146107419Y-92690475D01*
X146107419Y-92690475D02*
X146583609Y-92738094D01*
X146583609Y-92738094D02*
X146535990Y-92690475D01*
X146535990Y-92690475D02*
X146488371Y-92595237D01*
X146488371Y-92595237D02*
X146488371Y-92357142D01*
X146488371Y-92357142D02*
X146535990Y-92261904D01*
X146535990Y-92261904D02*
X146583609Y-92214285D01*
X146583609Y-92214285D02*
X146678847Y-92166666D01*
X146678847Y-92166666D02*
X146916942Y-92166666D01*
X146916942Y-92166666D02*
X147012180Y-92214285D01*
X147012180Y-92214285D02*
X147059800Y-92261904D01*
X147059800Y-92261904D02*
X147107419Y-92357142D01*
X147107419Y-92357142D02*
X147107419Y-92595237D01*
X147107419Y-92595237D02*
X147059800Y-92690475D01*
X147059800Y-92690475D02*
X147012180Y-92738094D01*
X146107419Y-91547618D02*
X146107419Y-91452380D01*
X146107419Y-91452380D02*
X146155038Y-91357142D01*
X146155038Y-91357142D02*
X146202657Y-91309523D01*
X146202657Y-91309523D02*
X146297895Y-91261904D01*
X146297895Y-91261904D02*
X146488371Y-91214285D01*
X146488371Y-91214285D02*
X146726466Y-91214285D01*
X146726466Y-91214285D02*
X146916942Y-91261904D01*
X146916942Y-91261904D02*
X147012180Y-91309523D01*
X147012180Y-91309523D02*
X147059800Y-91357142D01*
X147059800Y-91357142D02*
X147107419Y-91452380D01*
X147107419Y-91452380D02*
X147107419Y-91547618D01*
X147107419Y-91547618D02*
X147059800Y-91642856D01*
X147059800Y-91642856D02*
X147012180Y-91690475D01*
X147012180Y-91690475D02*
X146916942Y-91738094D01*
X146916942Y-91738094D02*
X146726466Y-91785713D01*
X146726466Y-91785713D02*
X146488371Y-91785713D01*
X146488371Y-91785713D02*
X146297895Y-91738094D01*
X146297895Y-91738094D02*
X146202657Y-91690475D01*
X146202657Y-91690475D02*
X146155038Y-91642856D01*
X146155038Y-91642856D02*
X146107419Y-91547618D01*
X146107419Y-90595237D02*
X146107419Y-90499999D01*
X146107419Y-90499999D02*
X146155038Y-90404761D01*
X146155038Y-90404761D02*
X146202657Y-90357142D01*
X146202657Y-90357142D02*
X146297895Y-90309523D01*
X146297895Y-90309523D02*
X146488371Y-90261904D01*
X146488371Y-90261904D02*
X146726466Y-90261904D01*
X146726466Y-90261904D02*
X146916942Y-90309523D01*
X146916942Y-90309523D02*
X147012180Y-90357142D01*
X147012180Y-90357142D02*
X147059800Y-90404761D01*
X147059800Y-90404761D02*
X147107419Y-90499999D01*
X147107419Y-90499999D02*
X147107419Y-90595237D01*
X147107419Y-90595237D02*
X147059800Y-90690475D01*
X147059800Y-90690475D02*
X147012180Y-90738094D01*
X147012180Y-90738094D02*
X146916942Y-90785713D01*
X146916942Y-90785713D02*
X146726466Y-90833332D01*
X146726466Y-90833332D02*
X146488371Y-90833332D01*
X146488371Y-90833332D02*
X146297895Y-90785713D01*
X146297895Y-90785713D02*
X146202657Y-90738094D01*
X146202657Y-90738094D02*
X146155038Y-90690475D01*
X146155038Y-90690475D02*
X146107419Y-90595237D01*
X146107419Y-89642856D02*
X146107419Y-89547618D01*
X146107419Y-89547618D02*
X146155038Y-89452380D01*
X146155038Y-89452380D02*
X146202657Y-89404761D01*
X146202657Y-89404761D02*
X146297895Y-89357142D01*
X146297895Y-89357142D02*
X146488371Y-89309523D01*
X146488371Y-89309523D02*
X146726466Y-89309523D01*
X146726466Y-89309523D02*
X146916942Y-89357142D01*
X146916942Y-89357142D02*
X147012180Y-89404761D01*
X147012180Y-89404761D02*
X147059800Y-89452380D01*
X147059800Y-89452380D02*
X147107419Y-89547618D01*
X147107419Y-89547618D02*
X147107419Y-89642856D01*
X147107419Y-89642856D02*
X147059800Y-89738094D01*
X147059800Y-89738094D02*
X147012180Y-89785713D01*
X147012180Y-89785713D02*
X146916942Y-89833332D01*
X146916942Y-89833332D02*
X146726466Y-89880951D01*
X146726466Y-89880951D02*
X146488371Y-89880951D01*
X146488371Y-89880951D02*
X146297895Y-89833332D01*
X146297895Y-89833332D02*
X146202657Y-89785713D01*
X146202657Y-89785713D02*
X146155038Y-89738094D01*
X146155038Y-89738094D02*
X146107419Y-89642856D01*
X147107419Y-88119046D02*
X146440752Y-88119046D01*
X146535990Y-88119046D02*
X146488371Y-88071427D01*
X146488371Y-88071427D02*
X146440752Y-87976189D01*
X146440752Y-87976189D02*
X146440752Y-87833332D01*
X146440752Y-87833332D02*
X146488371Y-87738094D01*
X146488371Y-87738094D02*
X146583609Y-87690475D01*
X146583609Y-87690475D02*
X147107419Y-87690475D01*
X146583609Y-87690475D02*
X146488371Y-87642856D01*
X146488371Y-87642856D02*
X146440752Y-87547618D01*
X146440752Y-87547618D02*
X146440752Y-87404761D01*
X146440752Y-87404761D02*
X146488371Y-87309522D01*
X146488371Y-87309522D02*
X146583609Y-87261903D01*
X146583609Y-87261903D02*
X147107419Y-87261903D01*
X147107419Y-86785713D02*
X146440752Y-86785713D01*
X146535990Y-86785713D02*
X146488371Y-86738094D01*
X146488371Y-86738094D02*
X146440752Y-86642856D01*
X146440752Y-86642856D02*
X146440752Y-86499999D01*
X146440752Y-86499999D02*
X146488371Y-86404761D01*
X146488371Y-86404761D02*
X146583609Y-86357142D01*
X146583609Y-86357142D02*
X147107419Y-86357142D01*
X146583609Y-86357142D02*
X146488371Y-86309523D01*
X146488371Y-86309523D02*
X146440752Y-86214285D01*
X146440752Y-86214285D02*
X146440752Y-86071428D01*
X146440752Y-86071428D02*
X146488371Y-85976189D01*
X146488371Y-85976189D02*
X146583609Y-85928570D01*
X146583609Y-85928570D02*
X147107419Y-85928570D01*
X144250000Y-82250000D02*
X148336420Y-82250000D01*
X144250000Y-98750000D02*
X148336420Y-98750000D01*
X147750000Y-82250000D02*
X147750000Y-98750000D01*
X147750000Y-82250000D02*
X147750000Y-98750000D01*
X147750000Y-82250000D02*
X148336421Y-83376504D01*
X147750000Y-82250000D02*
X147163579Y-83376504D01*
X147750000Y-98750000D02*
X147163579Y-97623496D01*
X147750000Y-98750000D02*
X148336421Y-97623496D01*
D11*
X132483333Y-83063595D02*
X132483333Y-83635023D01*
X132483333Y-83635023D02*
X132445238Y-83749309D01*
X132445238Y-83749309D02*
X132369047Y-83825500D01*
X132369047Y-83825500D02*
X132254762Y-83863595D01*
X132254762Y-83863595D02*
X132178571Y-83863595D01*
X133283333Y-83863595D02*
X132826190Y-83863595D01*
X133054762Y-83863595D02*
X133054762Y-83063595D01*
X133054762Y-83063595D02*
X132978571Y-83177880D01*
X132978571Y-83177880D02*
X132902381Y-83254071D01*
X132902381Y-83254071D02*
X132826190Y-83292166D01*
X142733333Y-82813595D02*
X142733333Y-83385023D01*
X142733333Y-83385023D02*
X142695238Y-83499309D01*
X142695238Y-83499309D02*
X142619047Y-83575500D01*
X142619047Y-83575500D02*
X142504762Y-83613595D01*
X142504762Y-83613595D02*
X142428571Y-83613595D01*
X143076190Y-82889785D02*
X143114286Y-82851690D01*
X143114286Y-82851690D02*
X143190476Y-82813595D01*
X143190476Y-82813595D02*
X143380952Y-82813595D01*
X143380952Y-82813595D02*
X143457143Y-82851690D01*
X143457143Y-82851690D02*
X143495238Y-82889785D01*
X143495238Y-82889785D02*
X143533333Y-82965976D01*
X143533333Y-82965976D02*
X143533333Y-83042166D01*
X143533333Y-83042166D02*
X143495238Y-83156452D01*
X143495238Y-83156452D02*
X143038095Y-83613595D01*
X143038095Y-83613595D02*
X143533333Y-83613595D01*
D12*
%TO.C,J1*%
X139170000Y-82820000D02*
X140500000Y-82820000D01*
X139170000Y-84150000D02*
X139170000Y-82820000D01*
X139170000Y-85420000D02*
X139170000Y-98180000D01*
X139170000Y-85420000D02*
X141830000Y-85420000D01*
X139170000Y-98180000D02*
X141830000Y-98180000D01*
X141830000Y-85420000D02*
X141830000Y-98180000D01*
%TO.C,J2*%
X133940000Y-83440000D02*
X135000000Y-83440000D01*
X133940000Y-84500000D02*
X133940000Y-83440000D01*
X133940000Y-85500000D02*
X133940000Y-97560000D01*
X133940000Y-85500000D02*
X136000000Y-85500000D01*
X133940000Y-97560000D02*
X138060000Y-97560000D01*
X136000000Y-83440000D02*
X138060000Y-83440000D01*
X136000000Y-85500000D02*
X136000000Y-83440000D01*
X138060000Y-83440000D02*
X138060000Y-97560000D01*
%TD*%
M02*
